<?xml version="1.0" encoding="UTF-8" standalone="no"?>
<svg width="180px" height="29px" viewBox="0 0 180 29" version="1.1" xmlns="http://www.w3.org/2000/svg" xmlns:xlink="http://www.w3.org/1999/xlink">
    <!-- Generator: Sketch 40.3 (33839) - http://www.bohemiancoding.com/sketch -->
    <title>elements</title>
    <desc>Created with Sketch.</desc>
    <defs></defs>
    <g id="Page-1" stroke="none" stroke-width="1" fill="none" fill-rule="evenodd">
        <g id="Scholarship" transform="translate(-150.000000, -32.000000)">
            <g id="Header" transform="translate(150.000000, 32.000000)">
                <g id="logo_top">
                    <g id="elements">
                        <path d="M173.675469,7.54104763 C169.681973,7.8440185 165.734699,8.49612103 156.846685,9.11116489 L144,9.94140908 C144.201353,10.8139132 144.354583,11.5407832 144.523011,11.8632586 C145.218247,13.190219 147.568629,13.8429717 151.276559,13.8468726 C152.414392,13.848823 154.953463,13.8319191 158.833619,13.8325692 L156.228064,28.5 L158.993181,28.5 L165.398478,13.8338695 C171.936744,13.8338695 173.549465,13.8410212 173.75715,13.8338695 C176.508971,13.7473993 180.085198,13.1122007 179.998452,11.3119297 C179.872448,8.68986634 177.283989,7.23157524 173.675469,7.54104763" id="Fill-1" fill="#FFFFFF"></path>
                        <path d="M144.179748,4.50712119 L142.5,4.5 C142.5,4.5 143.058579,6.80904655 143.603409,9 L148.5,8.6676777 L144.179748,4.50712119 Z" id="Fill-3" fill="#FFFFFF"></path>
                        <path d="M115.5,28.5 L118.295671,28.5 L119.127117,25.1817758 L122.825482,25.1817758 C125.479964,25.1817758 128.161899,23.5760633 128.837122,20.8762807 C129.586861,17.8765911 127.652704,16.5 124.995607,16.5 L118.502879,16.5 L115.5,28.5 Z M124.016436,18.6527476 C125.395643,18.6527476 126.300297,19.4276622 125.942096,20.8576529 C125.607426,22.1988513 124.301429,23.0302701 122.922222,23.0302701 L119.665726,23.0302701 L120.758633,18.6527476 L124.016436,18.6527476 Z" id="Fill-5" fill="#FFFFFF"></path>
                        <path d="M117,16.5 L113.819395,16.5 L109.148307,20.8924247 L106.681729,16.5 L103.587613,16.5 L110.79421,28.5 L114.013834,28.5 L114.061956,28.3075132 L110.692764,22.5180068 L116.959682,16.67448 L117,16.5 Z M105.803827,23.4133809 L100.545521,28.3075132 L100.5,28.5 L103.718323,28.5 L105.966401,26.3708476 C106.608895,25.7635827 106.731151,24.8942875 106.275293,24.1659423 L105.803827,23.4133809 Z" id="Fill-7" fill="#FFFFFF"></path>
                        <polygon id="Fill-9" fill="#FFFFFF" points="99.053192 28.5 99.585825 26.3304874 91.6605029 26.3304874 92.3702524 23.4363552 98.8651661 23.4363552 99.3977991 21.2649798 92.9054523 21.2649798 93.5407615 18.6707544 101.46865 18.6707544 102 16.5 91.4461663 16.5 88.5 28.5"></polygon>
                        <polygon id="Fill-11" fill="#FFFFFF" points="139.052912 28.5 139.586879 26.3304874 131.65952 26.3304874 132.37062 23.4363552 138.864868 23.4363552 139.397552 21.2649798 132.905871 21.2649798 133.541241 18.6707544 141.4686 18.6707544 142 16.5 131.445163 16.5 128.5 28.5"></polygon>
                        <path d="M73.5,28.5 L78.9215482,28.5 C82.6418623,28.5 85.9075051,26.3834851 86.8029233,22.5186258 C87.7062119,18.6189983 85.4183246,16.518005 81.701643,16.5 L76.2776731,16.5 L73.5,28.5 Z M81.0901674,18.6537666 C83.4016661,18.6537666 84.6990841,20.013452 84.118485,22.5186258 C83.5463618,24.9890315 81.6223328,26.3474752 79.3072016,26.3474752 L76.5900706,26.3474752 L78.3694039,18.6537666 L81.0901674,18.6537666 Z" id="Fill-13" fill="#94D9F8"></path>
                        <path d="M45,28.5 L47.7485939,28.5 L49.3544713,26.1001242 L55.3293729,26.1001242 L55.7545697,28.5 L58.5,28.5 L56.3177025,16.5 L53.1477081,16.5 L45,28.5 Z M54.1385686,18.9538963 L55.0958943,24.2652903 L50.4933915,24.2652903 L54.1385686,18.9538963 Z" id="Fill-15" fill="#94D9F8"></path>
                        <path d="M38.3123442,28.5 L41.2781393,28.5 L49.5,16.5 L46.5124962,16.5 L40.5323807,25.3233468 L39.1353603,16.5 L36.1689267,16.5 C36.8591365,20.5068302 37.5435999,24.5062093 38.3123442,28.5 L38.3123442,28.5 Z M35.5278808,22.2981993 L33.0952265,25.7288109 L31.4466403,16.5 L28.5,16.5 L30.7002432,28.5 L33.6666768,28.5 L35.4602007,25.9802856 C35.9243843,25.330177 36.0661295,24.6229432 35.8911827,23.8672772 L35.5278808,22.2981993 Z" id="Fill-17" fill="#94D9F8"></path>
                        <polygon id="Fill-19" fill="#94D9F8" points="25.0533321 28.5 25.5865814 26.3304874 17.6616361 26.3304874 18.3713518 23.4363552 24.8646734 23.4363552 25.3966394 21.2649798 18.9039595 21.2649798 19.5405219 18.6707544 27.4648256 18.6707544 28 16.5 17.4460262 16.5 14.5 28.5"></polygon>
                        <path d="M0,28.3713746 L2.76608075,28.3713746 L3.54456631,25.2607133 L3.83552852,24.093601 L4.31723263,22.1733942 L5.20240433,18.6296728 L8.64157766,18.6296728 C9.9062934,18.6296728 10.6634417,19.240871 10.3711864,20.4104404 C10.0950956,21.5105973 9.01982854,22.1733942 7.75575938,22.1733942 L4.31723263,22.1733942 C5.76234494,25.0911749 8.45794818,29.5556864 12.7654821,28.27432 L13.5,26.1550898 C13.0215288,26.3283139 12.3839983,26.4327397 11.9281575,26.4327397 C10.5263662,26.4327397 9.54679343,25.1261882 8.554289,24.0401596 C10.7837061,23.7453101 12.776474,22.3306472 13.2698166,20.3563847 C13.9985153,17.4422896 11.525983,16.5 8.87758034,16.5 L2.96846113,16.5 L0,28.3713746 Z" id="Fill-21" fill="#94D9F8"></path>
                        <path d="M60,28.3713746 L62.7667273,28.3713746 L63.5458595,25.2607133 L63.8368217,24.093601 L64.316586,22.1733942 L65.2030509,18.6296728 L68.6428708,18.6296728 C69.90694,18.6296728 70.6634417,19.240871 70.3705398,20.4104404 C70.0963887,21.5105973 69.0204751,22.1733942 67.756406,22.1733942 L64.316586,22.1733942 C65.7610518,25.0911749 68.4585948,29.5556864 72.7661286,28.27432 L73.5,26.1550898 C73.0202356,26.3283139 72.3833517,26.4327397 71.9288041,26.4327397 C70.5244265,26.4327397 69.54744,25.1261882 68.5536424,24.0401596 C70.7811198,23.7453101 72.776474,22.3306472 73.2698166,20.3563847 C73.9985153,17.4422896 71.5272762,16.5 68.8775803,16.5 L62.9691077,16.5 L60,28.3713746 Z" id="Fill-23" fill="#94D9F8"></path>
                        <path d="M141,28.3713746 L143.765434,28.3713746 L144.543273,25.2607133 L144.836822,24.093601 L145.316586,22.1733942 L146.201758,18.6296728 L149.641578,18.6296728 C150.904354,18.6296728 151.663442,19.240871 151.37054,20.4104404 C151.095096,21.5105973 150.019182,22.1733942 148.755113,22.1733942 L145.316586,22.1733942 C146.758465,25.0911749 149.456008,29.5556864 153.763542,28.27432 L154.5,26.1550898 C154.021529,26.3283139 153.382059,26.4327397 152.926218,26.4327397 C151.524426,26.4327397 150.546147,25.1261882 149.552349,24.0401596 C151.78112,23.7453101 153.775181,22.3306472 154.267877,20.3563847 C154.997222,17.4422896 152.52469,16.5 149.876934,16.5 L143.967815,16.5 L141,28.3713746 Z" id="Fill-25" fill="#FFFFFF"></path>
                        <polygon id="Fill-27" fill="#7FD5FF" points="163.5 7.01312336 159.696697 1.5 157.5 1.5 158.259406 7.5"></polygon>
                        <g id="Beta" transform="translate(3.000000, 0.000000)" fill="#FFFFFF">
                            <path d="M4.24925,1.49480625 L3.313,1.49480625 L2.587375,4.5877125 L3.372375,4.5877125 C4.63925,4.5877125 5.622375,4.02399375 5.723625,2.8105875 C5.788625,2.02965 5.351125,1.49480625 4.24925,1.49480625 M3.158,5.6718375 L2.3455,5.6718375 L1.497375,9.24315 L2.474875,9.24315 C3.97675,9.24315 4.97675,8.6354625 5.086125,7.31968125 C5.17175,6.2939625 4.562375,5.6718375 3.158,5.6718375 M5.078,5.10811875 C5.9405,5.49924375 6.434875,6.1784625 6.34675,7.2337125 C6.176125,9.2864625 4.503,10.3554938 2.231125,10.3554938 L-0.000125,10.3554938 L2.33175,0.38180625 L4.397375,0.38180625 C6.28425,0.38180625 7.10175,1.30711875 6.993,2.62224375 C6.88925,3.86518125 6.12925,4.71830625 5.078,5.10811875" id="Fill-1"></path>
                            <path d="M12.1984348,5.91312688 C12.3451528,4.73609208 12.0510375,3.98177583 11.1680122,3.98177583 C10.4045351,3.98177583 9.62543511,4.69087421 9.17509224,5.91312688 L12.1984348,5.91312688 Z M8.8266369,7.51288024 C8.72203237,8.72006029 9.2165265,9.39901343 10.3243835,9.39901343 C11.2074088,9.39901343 11.8791872,9.06741573 12.7547407,8.46314059 L12.6508154,9.67032064 C11.7779789,10.2444505 11.036917,10.5 10.0194002,10.5 C8.38784129,10.5 7.34994702,9.51959441 7.51772182,7.58824335 C7.76021413,4.79638257 9.59215185,3 11.3133718,3 C12.8253827,3 13.6323319,4.0413812 13.4822176,5.77747328 C13.4502928,6.13921622 13.3667451,6.5913949 13.2804803,6.89353247 L8.91018467,6.89353247 C8.87825991,7.09016169 8.84497666,7.30117841 8.8266369,7.51288024 L8.8266369,7.51288024 Z" id="Fill-4"></path>
                            <path d="M17.0861091,4.84289268 L16.0403302,8.55521388 C16.0150524,8.65099164 15.9839968,8.80149955 15.9724413,8.91158178 C15.9377746,9.25364522 16.152997,9.48687029 16.7257198,9.48687029 C17.0283313,9.48687029 17.2529426,9.45888328 17.448665,9.4184576 L17.3482761,10.4042222 C17.1373869,10.4458918 16.6859976,10.5 16.1616637,10.5 C15.0313847,10.5 14.4196619,10.1032064 14.5084953,9.22628015 C14.5265509,9.04778523 14.582162,8.81518209 14.630551,8.65099164 L15.7174966,4.84289268 L14.6348843,4.84289268 L14.9266624,3.85650612 L15.9926635,3.85650612 L16.6123308,1.67849492 L18.0459434,1.5 L17.377165,3.85650612 L19,3.85650612 L18.9003332,4.84289268 L17.0861091,4.84289268 Z" id="Fill-6"></path>
                            <path d="M24.0720252,4.61094461 C23.794237,4.51075868 23.5697945,4.45285902 23.1397756,4.45285902 C21.8347563,4.45285902 20.4594768,5.92897508 20.2760194,8.02182011 C20.198603,8.90983175 20.4822463,9.42507367 21.0996258,9.42507367 C21.7007414,9.42507367 22.4553886,8.83827037 23.2406121,8.0497941 L24.0720252,4.61094461 Z M20.7183988,10.4997955 C19.6007402,10.4997955 18.8825242,9.69765746 19.0158886,8.17925514 C19.2683051,5.28427212 21.3221166,3.4360369 23.3863371,3.4360369 C24.1461888,3.4360369 24.7355944,3.57915965 25.5,3.85174345 L24.3433079,8.5513743 L24.1858729,10.3566727 L23.0961883,10.3566727 L23.1235117,9.22470181 C22.3909834,9.89802932 21.5784365,10.4997955 20.7183988,10.4997955 L20.7183988,10.4997955 Z" id="Fill-8"></path>
                        </g>
                    </g>
                </g>
            </g>
        </g>
    </g>
</svg>