<?xml version="1.0" encoding="UTF-8" standalone="no"?>
<svg width="32px" height="22px" viewBox="0 0 32 22" version="1.1" xmlns="http://www.w3.org/2000/svg" xmlns:xlink="http://www.w3.org/1999/xlink">
    <!-- Generator: Sketch 40.3 (33839) - http://www.bohemiancoding.com/sketch -->
    <title>Shape</title>
    <desc>Created with Sketch.</desc>
    <defs></defs>
    <g id="Page-1" stroke="none" stroke-width="1" fill="none" fill-rule="evenodd">
        <g id="Scholarship" transform="translate(-214.000000, -1541.000000)" fill="#4BC453">
            <g id="Content" transform="translate(150.000000, 623.000000)">
                <g id="Requirements" transform="translate(64.000000, 913.000000)">
                    <g id="Scholarship">
                        <path d="M14.6931292,5.24071434 L0.719990044,11.3961236 C0.533326222,11.4992869 0.373328356,11.6018771 0.239996444,11.7400012 C0.106665244,11.8781254 0,12.0838788 0,12.3589809 C0,12.6335099 0.106665244,12.8404096 0.239996444,12.9779607 C0.373328356,13.1498994 0.533326222,13.2186749 0.719990044,13.3218383 L6.4,15.7153179 L6.4,22.1458297 C6.4,22.3521565 6.50666524,22.5240952 6.63999644,22.5928706 L15.8664462,26.9737797 C15.9464455,27.0087401 16.0259996,27.0087401 16.1064427,26.9737797 L25.3600036,22.5928706 C25.5200014,22.5240952 25.6,22.3521565 25.6,22.1458297 L25.6,15.7153179 L30.2128988,13.9281473 L30.2128988,17.3669233 C29.8395705,17.5732501 29.4666318,20.9259847 29.4666318,21.4761891 C29.4666318,22.1639441 31.4666318,22.1639441 31.4666318,21.4761891 C31.4666318,20.9259847 31.3062172,17.5732501 30.9333333,17.3669233 L30.9333333,13.6186574 C30.9333333,13.6186574 31.6266716,13.1493263 31.7600036,12.9773875 C31.8933348,12.8398365 32,12.6329368 32,12.3584078 C32,12.0833057 31.8933348,11.8769791 31.7600036,11.7394281 C31.6266716,11.6018771 31.4666738,11.4987138 31.28001,11.3955505 L17.3068708,5.24014125 C16.906432,5.06877558 16.4531051,5 15.9997781,5 C15.546006,5 15.0931236,5.06877558 14.6931292,5.24071434 L14.6931292,5.24071434 Z M17.0013191,6.5844158 L30.1269867,12.3664993 C30.202134,12.3988014 30.202134,12.4305652 30.2522318,12.4634057 C30.202134,12.4957078 30.202134,12.5280099 30.1269867,12.5603121 L23.9148388,15.3065327 C23.864741,15.3065327 23.7895936,15.3065327 23.7645447,15.3705982 L17.0013191,18.3429336 C16.5003392,18.5690487 15.4983801,18.5690487 14.9974002,18.3429336 L8.234592,15.3377582 C8.18449422,15.3377582 8.1590272,15.3054557 8.13439573,15.3054557 L1.87215004,12.5592354 C1.79658524,12.5269332 1.79658524,12.4946311 1.74690489,12.462329 C1.79658524,12.4294884 1.79658524,12.3977246 1.87215004,12.3977246 L14.9974002,6.58333902 C15.2483072,6.48697097 15.624042,6.42290506 15.9997767,6.42290506 C16.375094,6.42290506 16.7512462,6.48697097 17.0013191,6.5844158 L17.0013191,6.5844158 Z M24.1777778,16.2218998 L24.1777778,21.6558568 L16.0002603,25.6167279 L7.82222222,22.0053003 L7.82222222,16.5713433 L14.7780892,19.4427028 C15.5011691,19.7647743 16.4985209,19.7647743 17.2216007,19.4427028 L23.579717,16.6458761 L24.1777778,16.2218998 L24.1777778,16.2218998 Z" id="Shape"></path>
                    </g>
                </g>
            </g>
        </g>
    </g>
</svg>
