<?xml version="1.0" encoding="UTF-8" standalone="no"?>
<svg width="115px" height="73px" viewBox="0 0 115 73" version="1.1" xmlns="http://www.w3.org/2000/svg" xmlns:xlink="http://www.w3.org/1999/xlink">
    <!-- Generator: Sketch 40.3 (33839) - http://www.bohemiancoding.com/sketch -->
    <title>2x</title>
    <desc>Created with Sketch.</desc>
    <defs></defs>
    <g id="Page-1" stroke="none" stroke-width="1" fill="none" fill-rule="evenodd">
        <g id="Scholarship" transform="translate(-284.000000, -686.000000)" fill="#FFFFFF">
            <g id="Content" transform="translate(150.000000, 623.000000)">
                <g id="Decription" transform="translate(64.000000, 0.000000)">
                    <g id="Icon">
                        <g id="2x" transform="translate(65.000000, 36.000000)">
                            <path d="M36.0798182,56.3503357 C37.8771325,53.8069663 38.7757762,51.3484128 38.7757762,48.9746014 C38.7757762,46.60079 37.9958213,44.6169917 36.4358881,43.0231469 C34.8759549,41.4293021 32.875201,40.6323916 30.4335664,40.6323916 C25.9572364,40.6323916 21.718351,43.8200334 17.7167832,50.1954126 L5,42.6670769 C8.32333596,37.512515 11.9687774,33.6127405 15.9364336,30.9676364 C19.9040898,28.3225322 24.9568411,27 31.0948392,27 C37.2328372,27 42.6246994,28.9498873 47.2705874,32.8497203 C51.9164754,36.7495533 54.2393846,42.0566378 54.2393846,48.7711329 C54.2393846,52.4335847 53.3068298,55.9433818 51.4416923,59.3006294 C49.5765548,62.6578769 46.1345799,66.9476289 41.1156643,72.170014 L28.2971469,85.4972028 L56.3758042,85.4972028 L56.3758042,99.74 L6.22081119,99.74 L6.22081119,87.9388252 L27.0763357,66.5746294 C31.281373,62.3017688 34.2825038,58.893705 36.0798182,56.3503357 L36.0798182,56.3503357 Z M82.4197762,45.006965 L91.7793287,59.6566993 L101.444084,45.006965 L119.349315,45.006965 L100.528476,71.7630769 L120.061455,99.74 L101.851021,99.74 L91.1689231,84.6833287 L80.792028,99.74 L63.192,99.74 L82.318042,71.8648112 L64.2093427,45.006965 L82.4197762,45.006965 Z"></path>
                        </g>
                    </g>
                </g>
            </g>
        </g>
    </g>
</svg>