<?xml version="1.0" encoding="UTF-8" standalone="no"?>
<svg width="16px" height="16px" viewBox="0 0 16 16" version="1.1" xmlns="http://www.w3.org/2000/svg" xmlns:xlink="http://www.w3.org/1999/xlink">
    <!-- Generator: Sketch 40.3 (33839) - http://www.bohemiancoding.com/sketch -->
    <title>check</title>
    <desc>Created with Sketch.</desc>
    <defs></defs>
    <g id="Page-1" stroke="none" stroke-width="1" fill="none" fill-rule="evenodd">
        <g id="Scholarship" transform="translate(-250.000000, -1897.000000)" fill="#0385FA">
            <g id="Content" transform="translate(150.000000, 623.000000)">
                <g id="Requirements" transform="translate(64.000000, 913.000000)">
                    <g id="checks" transform="translate(36.000000, 356.000000)">
                        <g id="check" transform="translate(0.000000, 5.000000)">
                            <path d="M7.99996911,0 C3.58899127,0 0,3.58403782 0,7.99680077 C0,12.4095596 3.58899127,16 7.99996911,16 C12.4109469,16 15.9999382,12.4095596 15.9999382,7.99680077 C16.0030763,7.77478257 15.8864763,7.5682726 15.6947864,7.45634736 C15.5030966,7.34442211 15.2660154,7.34442211 15.0743255,7.45634736 C14.8826357,7.5682726 14.7660356,7.77478257 14.7691737,7.99680077 C14.7691737,11.7441449 11.7457803,14.7751617 7.99996911,14.7751617 C4.25415793,14.7751617 1.23076448,11.7441449 1.23076448,7.99680077 C1.23076448,4.24947306 4.25415793,1.22485886 7.99996911,1.22485886 C9.18823119,1.22485886 10.3554882,1.54110836 11.3845714,2.13547929 C11.675125,2.27619632 12.0249863,2.16876719 12.1865934,1.88920875 C12.3482005,1.60965031 12.2667838,1.25270668 11.9999537,1.07095118 C10.7838353,0.368537064 9.40423035,4.66594057e-14 7.99996911,4.66594057e-14 L7.99996911,0 Z M15.1537876,2.05210237 C14.9972344,2.05990036 14.8446811,2.13043111 14.7371328,2.24448696 C12.5757463,4.50676565 10.4878364,6.94283689 8.36534206,9.19598783 L5.33331274,6.52184809 C5.09165213,6.30695193 4.67633066,6.33139247 4.46152123,6.57315065 C4.24671181,6.81490883 4.27114248,7.230398 4.51280309,7.44529416 L7.99996911,10.5234518 C8.23607076,10.7310425 8.63608973,10.7130045 8.85251966,10.4849749 C11.149721,8.08062915 13.3605228,5.46419453 15.6217243,3.09740227 C16.0366765,2.64316941 15.6640831,2.04175977 15.1537876,2.05210237 L15.1537876,2.05210237 Z" id="Shape"></path>
                        </g>
                    </g>
                </g>
            </g>
        </g>
    </g>
</svg>
