<?xml version="1.0" encoding="UTF-8" standalone="no"?>
<svg width="15px" height="12px" viewBox="0 0 15 12" version="1.1" xmlns="http://www.w3.org/2000/svg" xmlns:xlink="http://www.w3.org/1999/xlink">
    <!-- Generator: Sketch 40.3 (33839) - http://www.bohemiancoding.com/sketch -->
    <title>Shape</title>
    <desc>Created with Sketch.</desc>
    <defs></defs>
    <g id="Page-1" stroke="none" stroke-width="1" fill="none" fill-rule="evenodd" opacity="0.976212687">
        <g id="Scholarship" transform="translate(-713.000000, -2855.000000)" fill="#FFFFFF">
            <g id="Footer" transform="translate(0.000000, 2812.000000)">
                <g id="Social-Network" transform="translate(656.000000, 32.000000)">
                    <g id="socials">
                        <g id="Group-8-Copy" transform="translate(48.000000, 0.000000)">
                            <path d="M22.1015829,12.8187306 C22.7015054,12.4595816 23.1615035,11.8906896 23.3784295,11.2120416 C22.8172951,11.5450445 22.1961109,11.78668 21.5344148,11.9171229 C21.0048855,11.352828 20.2500979,11 19.4148609,11 C17.8113324,11 16.511213,12.3001194 16.511213,13.9039353 C16.511213,14.1312048 16.5367844,14.3527279 16.5864906,14.5656314 C14.1730092,14.4443827 12.0330557,13.2884975 10.6007694,11.5315405 C10.3508017,11.9602208 10.2077167,12.459007 10.2077167,12.9916968 C10.2077167,13.999038 10.7202942,14.8880036 11.4995039,15.408626 C11.0237033,15.3933981 10.5757727,15.2626679 10.1841566,15.0451672 C10.1838692,15.0572346 10.1838692,15.0695893 10.1838692,15.0819441 C10.1838692,16.4886589 11.1848894,17.6620706 12.5134534,17.9292775 C12.2698067,17.9953609 12.0132307,18.0309885 11.7483224,18.0309885 C11.5609902,18.0309885 11.3791172,18.0128874 11.2018412,17.9786964 C11.5716211,19.132283 12.6438964,19.9721171 13.9144219,19.9953899 C12.9205848,20.7743123 11.6687349,21.2386202 10.3079911,21.2386202 C10.073826,21.2386202 9.84253402,21.2248289 9.61526453,21.1978209 C10.9007307,22.0221397 12.4269704,22.5025374 14.0667011,22.5025374 C19.4082526,22.5025374 22.3288524,18.0778215 22.3288524,14.2403861 C22.3288524,14.1145403 22.3262665,13.9889818 22.3208075,13.8642852 C22.8879756,13.4557173 23.3804407,12.9440018 23.7694709,12.3616058 C23.2491359,12.5928977 22.6891507,12.7489121 22.1015829,12.8187306 Z" id="Shape"></path>
                        </g>
                    </g>
                </g>
            </g>
        </g>
    </g>
</svg>
